<?xml version="1.0" encoding="UTF-8"?> <svg xmlns="http://www.w3.org/2000/svg" xmlns:xlink="http://www.w3.org/1999/xlink" width="55" height="40" viewBox="0 0 55 40"><defs><style> .cls-1 { fill: url(#linear-gradient); } .cls-2 { fill: #084b50; } </style><linearGradient id="linear-gradient" x1="0.5" x2="0.5" y2="1.121" gradientUnits="objectBoundingBox"><stop offset="0" stop-color="#1ae6cd"></stop><stop offset="1" stop-color="#08afb8"></stop></linearGradient></defs><g id="button_goi_ngay" data-name="button goi ngay" transform="translate(-1074.947 -32)"><rect id="background_button" data-name="background button" class="cls-1" width="55" height="40" transform="translate(1074.947 32)"></rect><path id="icon_telegram" class="cls-2" d="M7.635,53.351l-.322,4.53a1.126,1.126,0,0,0,.9-.436l2.16-2.064,4.476,3.278c.821.458,1.4.217,1.621-.755l2.938-13.767h0c.26-1.213-.439-1.688-1.239-1.39L.9,49.356c-1.179.458-1.161,1.115-.2,1.412l4.415,1.373,10.256-6.417c.483-.32.921-.143.561.177Z" transform="translate(1091.902 1.362)"></path></g></svg> 